# xmcd CD database file
#
# Track frame offsets:
#	150
#	17286
#	44840
#	62892
#	88385
#	108389
#	125762
#	142032
#	142426
#
# Disc length: 2095 seconds
#
# Revision: 0
# Processed by: cddbd v1.4PL0 Copyright (c) Steve Scherf et al.
# Submitted via: CDex 1.50Beta1
#
DISCID=92082d09
DTITLE=Cusco - Cusco 2002
DYEAR=1993
DGENRE=New Age
TTITLE0=Seaplanet
TTITLE1=Australia
TTITLE2=Island Turtles
TTITLE3=Erosion
TTITLE4=Ancient People
TTITLE5=Unknown Paradise
TTITLE6=Didjeridoo
TTITLE7=From a Higher Point
TTITLE8=Earth Waltz
EXTD=YEAR: 1993
EXTT0=
EXTT1=
EXTT2=
EXTT3=
EXTT4=
EXTT5=
EXTT6=
EXTT7=
EXTT8=
PLAYORDER=
